<?xml version="1.0" encoding="UTF-8"?>
<svg width="400px" height="400px" viewBox="0 0 400 400" version="1.1" xmlns="http://www.w3.org/2000/svg" xmlns:xlink="http://www.w3.org/1999/xlink">
    <!-- Generator: Sketch 61.2 (89653) - https://sketch.com -->
    <title>404-not-found</title>
    <desc>Created with Sketch.</desc>
    <g id="Website" stroke="none" stroke-width="1" fill="none" fill-rule="evenodd">
        <g id="Desktop-HD-Copy-2" transform="translate(-520.000000, -410.000000)" fill="#FFFFFF" fill-rule="nonzero">
            <g id="404-not-found" transform="translate(520.000000, 410.000000)">
                <path d="M393.333333,0 L6.66666667,0 C2.98,0 0,2.98 0,6.66666667 L0,393.333333 C0,397.02 2.98,400 6.66666667,400 L393.333333,400 C397.02,400 400,397.02 400,393.333333 L400,6.66666667 C400,2.98 397.02,0 393.333333,0 Z M113.333333,386.666667 L113.333333,373.333333 C113.333333,347.606667 134.273333,326.666667 160,326.666667 L240,326.666667 C265.726667,326.666667 286.666667,347.606667 286.666667,373.333333 L286.666667,386.666667 L113.333333,386.666667 Z M80,253.333333 L66.6666667,253.333333 L66.6666667,186.666667 L80,186.666667 L80,253.333333 Z M93.3333333,146.666667 L306.666667,146.666667 L306.666667,313.333333 L93.3333333,313.333333 L93.3333333,146.666667 Z M193.333333,100 C193.333333,96.32 196.32,93.3333333 200,93.3333333 C203.68,93.3333333 206.666667,96.32 206.666667,100 C206.666667,103.68 203.68,106.666667 200,106.666667 C196.32,106.666667 193.333333,103.68 193.333333,100 Z M320,186.666667 L333.333333,186.666667 L333.333333,253.333333 L320,253.333333 L320,186.666667 Z M386.666667,386.666667 L300,386.666667 L300,373.333333 C300,354.493333 291.253333,337.673333 277.633333,326.666667 L313.333333,326.666667 C317.02,326.666667 320,323.686667 320,320 L320,266.666667 L340,266.666667 C343.686667,266.666667 346.666667,263.686667 346.666667,260 L346.666667,180 C346.666667,176.313333 343.686667,173.333333 340,173.333333 L320,173.333333 L320,140 C320,136.313333 317.02,133.333333 313.333333,133.333333 L206.666667,133.333333 L206.666667,118.773333 C214.406667,116.013333 220,108.68 220,100 C220,88.9733333 211.026667,80 200,80 C188.973333,80 180,88.9733333 180,100 C180,108.68 185.593333,116.013333 193.333333,118.773333 L193.333333,133.333333 L86.6666667,133.333333 C82.98,133.333333 80,136.313333 80,140 L80,173.333333 L60,173.333333 C56.3133333,173.333333 53.3333333,176.313333 53.3333333,180 L53.3333333,260 C53.3333333,263.686667 56.3133333,266.666667 60,266.666667 L80,266.666667 L80,320 C80,323.686667 82.98,326.666667 86.6666667,326.666667 L122.366667,326.666667 C108.746667,337.673333 100,354.493333 100,373.333333 L100,386.666667 L13.3333333,386.666667 L13.3333333,66.6666667 L386.666667,66.6666667 L386.666667,386.666667 Z M386.666667,53.3333333 L13.3333333,53.3333333 L13.3333333,13.3333333 L386.666667,13.3333333 L386.666667,53.3333333 Z" id="Shape"></path>
                <rect id="Rectangle" x="26.6666667" y="26.6666667" width="13.3333333" height="13.3333333"></rect>
                <rect id="Rectangle" x="53.3333333" y="26.6666667" width="13.3333333" height="13.3333333"></rect>
                <rect id="Rectangle" x="80" y="26.6666667" width="13.3333333" height="13.3333333"></rect>
                <rect id="Rectangle" x="173.333333" y="26.6666667" width="200" height="13.3333333"></rect>
                <polygon id="Path" points="168.62 238.046667 178.046667 228.62 159.426667 210 178.046667 191.38 168.62 181.953333 150 200.573333 131.38 181.953333 121.953333 191.38 140.573333 210 121.953333 228.62 131.38 238.046667 150 219.426667"></polygon>
                <polygon id="Path" points="231.38 238.046667 250 219.426667 268.62 238.046667 278.046667 228.62 259.426667 210 278.046667 191.38 268.62 181.953333 250 200.573333 231.38 181.953333 221.953333 191.38 240.573333 210 221.953333 228.62"></polygon>
                <path d="M240,300 C243.686667,300 246.666667,297.02 246.666667,293.333333 C246.666667,267.606667 225.726667,246.666667 200,246.666667 C174.273333,246.666667 153.333333,267.606667 153.333333,293.333333 C153.333333,297.02 156.313333,300 160,300 L240,300 Z M200,260 C216.1,260 229.566667,271.473333 232.66,286.666667 L167.333333,286.666667 C170.433333,271.473333 183.9,260 200,260 Z" id="Shape"></path>
            </g>
        </g>
    </g>
</svg>