<?xml version="1.0" encoding="UTF-8"?>
<svg width="526px" height="600px" viewBox="0 0 526 600" version="1.1" xmlns="http://www.w3.org/2000/svg" xmlns:xlink="http://www.w3.org/1999/xlink">
    <!-- Generator: Sketch 61.2 (89653) - https://sketch.com -->
    <title>Group</title>
    <desc>Created with Sketch.</desc>
    <g id="Page-1" stroke="none" stroke-width="1" fill="none" fill-rule="evenodd">
        <g id="Icon" transform="translate(-238.000000, -200.000000)" fill="#FD5750">
            <g id="Group" transform="translate(238.000000, 200.000000)">
                <path d="M281.387755,581.25 L281.387755,600 L243.869388,600 L243.869388,581.25 L281.387755,581.25 Z M300.146939,543.75 L300.146939,581.25 L281.387755,581.25 L281.387755,543.75 L300.146939,543.75 Z M243.869388,543.75 L243.869388,581.25 L225.110204,581.25 L225.110204,543.75 L243.869388,543.75 Z M318.906122,487.5 L318.906122,543.75 L300.146939,543.75 L300.146939,487.5 L318.906122,487.5 Z M225.11,505.179 L225.110204,543.75 L213.685,543.75 L225.11,505.179 Z M337.665306,412.5 L337.665306,487.5 L318.906122,487.5 L318.906122,412.5 L337.665306,412.5 Z M206.35102,412.5 L206.351,427.571 L188.599,487.5 L187.591837,487.5 L187.591837,412.5 L206.35102,412.5 Z M131.314286,468.75 L131.314286,487.5 L112.555102,487.5 L112.555102,468.75 L131.314286,468.75 Z M412.702041,468.75 L412.702041,487.5 L393.942857,487.5 L393.942857,468.75 L412.702041,468.75 Z M112.555102,450 L112.555102,468.75 L93.7959184,468.75 L93.7959184,450 L112.555102,450 Z M431.461224,450 L431.461224,468.75 L412.702041,468.75 L412.702041,450 L431.461224,450 Z M450.220408,431.25 L450.220408,450 L431.461224,450 L431.461224,431.25 L450.220408,431.25 Z M93.7959184,431.25 L93.7959184,450 L75.0367347,450 L75.0367347,431.25 L93.7959184,431.25 Z M450.220408,412.5 L468.970212,412.509375 L468.979592,431.25 L450.220408,431.25 L450.220408,412.5 Z M75.0367347,412.5 L75.0367347,431.25 L56.277551,431.25 L56.277551,412.5 L75.0367347,412.5 Z M487.738776,375 L487.738776,412.5 L468.970212,412.509375 L468.979592,375 L487.738776,375 Z M318.906122,393.75 L318.906122,412.5 L300.146939,412.5 L300.146939,393.75 L318.906122,393.75 Z M56.277551,375 L56.277551,412.5 L37.5183673,412.5 L37.5183673,375 L56.277551,375 Z M216.369,393.75 L210.815,412.5 L206.35102,412.5 L206.35102,393.75 L216.369,393.75 Z M300.146939,375 L300.146939,393.75 L258.117,393.75 L263.671,375 L300.146939,375 Z M37.5183673,337.5 L37.5183673,375 L18.7591837,375 L18.7591837,337.5 L37.5183673,337.5 Z M506.497959,337.5 L506.497959,375 L487.738776,375 L487.738776,337.5 L506.497959,337.5 Z M150.073469,356.25 L150.073469,375 L131.314286,375 L131.314286,356.25 L150.073469,356.25 Z M393.942857,356.25 L393.942857,375 L375.183673,375 L375.183673,356.25 L393.942857,356.25 Z M412.702041,318.75 L412.702041,356.25 L393.942857,356.25 L393.942857,318.75 L412.702041,318.75 Z M131.314286,318.75 L131.314286,356.25 L112.555102,356.25 L112.555102,318.75 L131.314286,318.75 Z M525.257143,187.5 L525.257143,337.5 L506.497959,337.5 L506.497959,187.5 L525.257143,187.5 Z M18.7591837,187.5 L18.7591837,337.5 L0,337.5 L0,187.5 L18.7591837,187.5 Z M238.586,318.75 L233.031,337.5 L225.110204,337.5 L225.110204,318.75 L238.586,318.75 Z M300.146939,318.75 L300.146939,337.5 L274.779,337.5 L280.333,318.75 L300.146939,318.75 Z M431.461224,206.25 L431.461224,318.75 L412.702041,318.75 L412.702041,206.25 L431.461224,206.25 Z M112.555102,206.25 L112.555102,318.75 L93.7959184,318.75 L93.7959184,206.25 L112.555102,206.25 Z M318.906122,300 L318.906122,318.75 L300.146939,318.75 L300.146939,300 L318.906122,300 Z M225.110204,300 L225.110204,318.75 L206.35102,318.75 L206.35102,300 L225.110204,300 Z M337.665306,225 L337.665306,300 L318.906122,300 L318.906122,225 L337.665306,225 Z M206.35102,225 L206.35102,300 L187.591837,300 L187.591837,225 L206.35102,225 Z M225.110204,206.25 L225.110204,225 L206.35102,225 L206.35102,206.25 L225.110204,206.25 Z M318.906122,206.25 L318.906122,225 L308.103,225 L313.657,206.25 L318.906122,206.25 Z M412.702041,168.75 L412.702041,206.25 L393.942857,206.25 L393.942857,168.75 L412.702041,168.75 Z M277.464,187.5 L271.91,206.25 L225.110204,206.25 L225.110204,187.5 L277.464,187.5 Z M131.314286,168.75 L131.314286,206.25 L112.555102,206.25 L112.555102,168.75 L131.314286,168.75 Z M506.497959,150 L506.497959,187.5 L487.738776,187.5 L487.738776,150 L506.497959,150 Z M37.5183673,150 L37.5183673,187.5 L18.7591837,187.5 L18.7591837,150 L37.5183673,150 Z M393.942857,150 L393.942857,168.75 L375.183673,168.75 L375.183673,150 L393.942857,150 Z M150.082849,150 L150.073469,168.75 L131.314286,168.75 L131.314286,150 L150.082849,150 Z M168.832653,131.25 L168.832653,150 L150.082849,150 L150.073469,131.25 L168.832653,131.25 Z M375.183673,131.25 L375.183673,150 L356.42449,150 L356.42449,131.25 L375.183673,131.25 Z M487.738776,112.5 L487.738776,150 L468.979592,150 L468.979592,112.5 L487.738776,112.5 Z M56.277551,112.5 L56.277551,150 L37.5183673,150 L37.5183673,112.5 L56.277551,112.5 Z M206.35102,112.5 L206.35102,131.25 L168.832653,131.25 L168.832653,112.5 L206.35102,112.5 Z M356.42449,112.5 L356.42449,131.25 L335.873,131.25 L341.427,112.5 L356.42449,112.5 Z M305.234,93.75 L299.68,112.5 L206.35102,112.5 L206.35102,93.75 L305.234,93.75 Z M75.0367347,93.75 L75.0367347,112.5 L56.277551,112.5 L56.277551,93.75 L75.0367347,93.75 Z M468.979592,93.75 L468.979592,112.5 L450.220408,112.5 L450.220408,93.75 L468.979592,93.75 Z M93.7959184,75 L93.7959184,93.75 L75.0367347,93.75 L75.0367347,75 L93.7959184,75 Z M450.220408,75 L450.220408,93.75 L431.461224,93.75 L431.461224,75 L450.220408,75 Z M112.555102,56.25 L112.555102,75 L93.7959184,75 L93.7959184,56.25 L112.555102,56.25 Z M431.461224,56.25 L431.461224,75 L412.702041,75 L412.702041,56.25 L431.461224,56.25 Z M150.073469,37.5 L150.073469,56.25 L112.555102,56.25 L112.555102,37.5 L150.073469,37.5 Z M412.702041,37.5 L412.702041,56.25 L375.183673,56.25 L375.183673,37.5 L412.702041,37.5 Z M187.591837,18.75 L187.591837,37.5 L150.073469,37.5 L150.073469,18.75 L187.591837,18.75 Z M375.183673,18.75 L375.183673,37.5 L363.644,37.5 L369.198,18.75 L375.183673,18.75 Z M333.004,0 L327.45,18.75 L187.591837,18.75 L187.591837,0 L333.004,0 Z" id="Combined-Shape"></path>
            </g>
        </g>
    </g>
</svg>